<?xml version="1.0" standalone="no"?>
<!DOCTYPE svg PUBLIC "-//W3C//DTD SVG 20010904//EN"
 "http://www.w3.org/TR/2001/REC-SVG-20010904/DTD/svg10.dtd">
<svg version="1.0" xmlns="http://www.w3.org/2000/svg"
 width="500.000000pt" height="500.000000pt" viewBox="0 0 500.000000 500.000000"
 preserveAspectRatio="xMidYMid meet">
<metadata>
Created by potrace 1.11, written by Peter Selinger 2001-2013
</metadata>
<g transform="translate(0.000000,500.000000) scale(0.100000,-0.100000)"
fill="#000000" stroke="none">
<path d="M2236 4933 c-4 -4 -37 -11 -74 -15 -154 -17 -457 -89 -527 -124 -16
-9 -50 -22 -75 -31 -25 -8 -92 -38 -150 -65 -314 -150 -600 -373 -841 -659
-42 -49 -185 -253 -203 -289 -4 -8 -20 -37 -37 -65 -16 -27 -45 -84 -64 -125
-20 -41 -40 -83 -45 -93 -6 -9 -26 -61 -46 -115 -19 -53 -39 -106 -44 -117
-21 -47 -58 -209 -79 -340 -6 -33 -15 -85 -21 -115 -16 -76 -10 -648 7 -658 7
-4 15 -39 19 -77 3 -39 12 -89 20 -113 8 -23 17 -61 20 -85 4 -23 15 -60 24
-82 10 -22 34 -89 55 -150 20 -60 42 -117 49 -125 7 -8 25 -46 41 -83 15 -38
33 -74 39 -81 6 -6 26 -41 45 -77 19 -35 43 -75 53 -89 19 -25 69 -96 112
-160 32 -48 226 -261 289 -318 79 -72 224 -192 230 -192 4 0 46 -28 94 -62 76
-53 366 -208 389 -208 5 0 21 -7 36 -14 32 -17 207 -73 258 -82 19 -4 40 -10
45 -15 18 -14 213 -48 368 -65 160 -17 414 -14 567 6 104 14 293 51 305 60 6
4 35 13 65 20 65 15 163 46 205 65 17 8 59 26 95 41 88 36 164 73 233 114 32
19 66 40 75 45 129 75 315 223 432 344 128 132 270 298 270 316 0 4 14 24 30
45 17 21 30 43 30 49 0 6 4 11 9 11 5 0 18 17 28 38 31 60 58 107 64 112 19
17 121 247 155 350 8 25 19 53 25 63 13 24 57 203 75 307 33 187 43 280 44
390 0 141 -19 441 -30 455 -4 6 -11 33 -15 60 -6 41 -26 132 -62 283 -3 12 -9
22 -13 22 -4 0 -10 15 -14 32 -10 53 -71 207 -116 293 -71 139 -166 295 -190
315 -4 3 -9 12 -12 20 -9 22 -127 170 -208 260 -85 94 -235 227 -334 295 -39
28 -87 62 -106 76 -73 55 -287 169 -405 215 -49 19 -103 41 -120 49 -16 7 -43
17 -60 20 -16 4 -55 16 -86 26 -30 10 -70 19 -87 19 -18 0 -32 4 -32 9 0 14
-105 32 -349 61 -96 11 -444 14 -455 3z m381 -3446 c119 -83 139 -251 42 -360
-64 -74 -180 -97 -276 -56 -87 37 -131 100 -140 199 -6 68 7 115 48 166 55 69
117 95 211 90 56 -4 74 -10 115 -39z"/>
</g>
</svg>
